<svg xmlns="http://www.w3.org/2000/svg" viewBox="0 0 602.07 695.11"><defs><style>.cls-1{fill:#231f20;}</style></defs><g id="Camada_2" data-name="Camada 2"><g id="Camada_1-2" data-name="Camada 1"><path class="cls-1" d="M124.3,664.89H15.11A15.11,15.11,0,0,0,0,680H0a15.11,15.11,0,0,0,15.11,15.11H329.19A15.11,15.11,0,0,0,344.3,680h0a15.11,15.11,0,0,0-15.11-15.11H171.41a8.45,8.45,0,0,1-8.45-8.45V118.54a11.49,11.49,0,0,1,1.54-5.75L205.78,41.3a11.49,11.49,0,0,1,9.95-5.74H460.44v82.37a8.88,8.88,0,0,0,8.89,8.88h0a8.88,8.88,0,0,0,8.89-8.88V35.56H587a15.11,15.11,0,0,0,15.11-15.12V15.11A15.11,15.11,0,0,0,587,0H100.44A15.12,15.12,0,0,0,85.33,15.11v5.33a15.12,15.12,0,0,0,15.11,15.12h21.63a10.66,10.66,0,0,1,10.67,10.66V656.44A8.44,8.44,0,0,1,124.3,664.89ZM184.24,43.06l-12,20.68a5,5,0,0,1-9.33-2.5V40.56a5,5,0,0,1,5-5h11.95A5,5,0,0,1,184.24,43.06Z"/></g></g></svg>