<?xml version="1.0" encoding="utf-8"?>
<!-- Generator: Adobe Illustrator 25.0.0, SVG Export Plug-In . SVG Version: 6.00 Build 0)  -->
<svg version="1.1" id="Camada_1" xmlns="http://www.w3.org/2000/svg" xmlns:xlink="http://www.w3.org/1999/xlink" x="0px" y="0px"
	 viewBox="0 0 1920 1920" style="enable-background:new 0 0 1920 1920;" xml:space="preserve">
<path d="M386.74,1236.85H277.56c-8.35,0-15.11,6.77-15.11,15.11l0,0c0,8.35,6.77,15.11,15.11,15.11h314.07
	c8.35,0,15.11-6.77,15.11-15.11l0,0c0-8.35-6.77-15.11-15.11-15.11H433.85c-4.66,0-8.44-3.78-8.44-8.44V690.5
	c0-2.02,0.53-4,1.54-5.75l41.27-71.48c2.05-3.56,5.85-5.75,9.96-5.75h244.71v82.37c0,4.91,3.98,8.89,8.89,8.89l0,0
	c4.91,0,8.89-3.98,8.89-8.89v-82.37h108.74c8.35,0,15.11-6.77,15.11-15.11v-5.33c0-8.35-6.77-15.11-15.11-15.11H362.89
	c-8.35,0-15.11,6.77-15.11,15.11v5.33c0,8.35,6.77,15.11,15.11,15.11h21.63c5.89,0,10.67,4.78,10.67,10.67v610.22
	C395.19,1233.07,391.4,1236.85,386.74,1236.85z M446.68,615.02l-11.94,20.68c-2.56,4.43-9.33,2.62-9.33-2.5v-20.68
	c0-2.76,2.24-5,5-5h11.94C446.2,607.52,448.6,611.69,446.68,615.02z"/>
<circle cx="732.85" cy="781.44" r="55.7"/>
<path d="M732.85,1054.63L732.85,1054.63c-20.62,0-37.33-16.71-37.33-37.33V887.52c0-20.62,16.71-37.33,37.33-37.33h0
	c20.62,0,37.33,16.71,37.33,37.33v129.78C770.19,1037.91,753.47,1054.63,732.85,1054.63z"/>
<path d="M514.78,887.52L514.78,887.52c0-17.67,14.33-32,32-32H649.3c17.67,0,32,14.33,32,32v0c0,17.67-14.33,32-32,32H546.78
	C529.1,919.52,514.78,905.19,514.78,887.52z"/>
<path d="M617.82,1198.13L617.82,1198.13c-15-9.34-19.59-29.07-10.25-44.08l54.18-87.03c9.34-15,29.07-19.59,44.08-10.25h0
	c15,9.34,19.59,29.07,10.25,44.08l-54.18,87.03C652.56,1202.88,632.82,1207.47,617.82,1198.13z"/>
<path d="M955.58,887.52L955.58,887.52c0-17.67-14.33-32-32-32H821.06c-17.67,0-32,14.33-32,32v0c0,17.67,14.33,32,32,32h102.52
	C941.26,919.52,955.58,905.19,955.58,887.52z"/>
<path d="M852.54,1198.13L852.54,1198.13c15-9.34,19.59-29.07,10.25-44.08l-54.18-87.03c-9.34-15-29.07-19.59-44.08-10.25h0
	c-15,9.34-19.59,29.07-10.25,44.08l54.18,87.03C817.8,1202.88,837.54,1207.47,852.54,1198.13z"/>
</svg>
